<?xml version="1.0" encoding="UTF-8" standalone="no"?>

<svg 
xmlns="http://www.w3.org/2000/svg"
xmlns:xlink="http://www.w3.org/1999/xlink"
width="64px" height="64px" >



<g transform="translate(6,22)" stroke="#c4a000">
<path d="M 8 8 h -5 a 4,4 0 0 1 1 -8 h 8
         l 7 15 h 14 l 7 -15 h 8
         a 4,4 0 0 1 1 8 h -5" 
   stroke-width="3" stroke-linecap="round" fill="none" />
</g>
<g transform="translate(5,20)" stroke="#edd400">
<path d="M 8 8 h -5 a 4,4 0 0 1 1 -8 h 8
         l 7 15 h 14 l 7 -15 h 8
         a 4,4 0 0 1 1 8 h -5" 
  stroke-width="3" stroke-linecap="round" fill="none" />
</g>
  
<g transform="translate(5, 20)" stroke="maroon" stroke-width="2"  stroke-linecap="round">
   <line x1="-3" x2="3" y1="0" y2="0"/>
   <line x1="0" x2="0" y1="-3" y2="3"/>
</g>


</svg>