<?xml version="1.0" encoding="UTF-8" standalone="no"?>
<svg
xmlns="http://www.w3.org/2000/svg"
>

<line x1='0' y1='0' x2='1' y2='0'/>

<g transform="translate(50,10)">
   <rect x="35" y="0" width="30" height="50" stroke="DimGray " fill="Gainsboro"/>
   <rect x="0" y="50" width="100" height="30" stroke="DimGray " fill="Gainsboro"/>
   <g transform="translate(0,50)" stroke-linecap="round" stroke="maroon" stroke-width='2' fill="none">
     <path d="M 10 5 v 20 h 80 v -20" stroke-width='2'  />
     <line x1="15" x2="15" y1="5" y2="23"/>
     <line x1="29" x2="29" y1="5" y2="23"/>
     <line x1="43" x2="43" y1="5" y2="23"/>
     <line x1="57" x2="57" y1="5" y2="23"/>
     <line x1="71" x2="71" y1="5" y2="23"/>
     <line x1="85" x2="85" y1="5" y2="23"/>
   </g>
</g> 

<g transform="translate(50,120)">
   <rect x="0" y="0" width="100" height="100" stroke="DimGray " fill="Gainsboro"/>
   <g stroke-linecap="round" stroke="maroon" stroke-width='2'>
      <line x1="10" y1="15" x2="90" y2="15"  />
      <line x1="10" y1="29" x2="90" y2="29"  />
      <line x1="10" y1="43" x2="90" y2="43"  />
      <line x1="10" y1="57" x2="90" y2="57"  />
      <line x1="10" y1="71" x2="90" y2="71"  />
      <line x1="10" y1="85" x2="90" y2="85"  />
   </g>

   <g stroke-linecap="round" stroke="maroon" stroke-width='2'>
      <line x1="15" y1="10" x2="15" y2="90" />
      <line x1="29" y1="10" x2="29" y2="90" />
      <line x1="43" y1="10" x2="43" y2="90" />
      <line x1="57" y1="10" x2="57" y2="90" />
      <line x1="71" y1="10" x2="71" y2="90" />
      <line x1="85" y1="10" x2="85" y2="90" />
   </g>
   
</g> 

</svg>